<svg width="24" height="24" viewBox="0 0 24 24" fill="none" xmlns="http://www.w3.org/2000/svg">
<path d="M4.00195 6.00003C4.00195 4.89546 4.89738 4.00003 6.00195 4.00002L18.0019 4C19.1065 4 20.002 4.89543 20.002 6V16.0358C20.002 17.1403 19.1065 18.0358 18.002 18.0358H15.3757C15.1427 18.0358 14.9171 18.1171 14.7377 18.2657L11.9977 20.5358L9.29398 18.2694C9.11393 18.1185 8.8865 18.0358 8.65157 18.0358H6.00195C4.89738 18.0358 4.00195 17.1403 4.00195 16.0358V6.00003Z" stroke="black" stroke-width="2" stroke-linejoin="round"/>
<path d="M6.875 11.25C6.875 11.7332 7.26675 12.125 7.75 12.125C8.23325 12.125 8.625 11.7332 8.625 11.25C8.625 10.7668 8.23325 10.375 7.75 10.375C7.26675 10.375 6.875 10.7668 6.875 11.25ZM11.125 11.25C11.125 11.7332 11.5168 12.125 12 12.125C12.4832 12.125 12.875 11.7332 12.875 11.25C12.875 10.7668 12.4832 10.375 12 10.375C11.5168 10.375 11.125 10.7668 11.125 11.25ZM15.375 11.25C15.375 11.7332 15.7668 12.125 16.25 12.125C16.7332 12.125 17.125 11.7332 17.125 11.25C17.125 10.7668 16.7332 10.375 16.25 10.375C15.7668 10.375 15.375 10.7668 15.375 11.25Z" fill="black" stroke="black" stroke-width="0.75" stroke-linecap="square"/>
</svg>
