<svg width="24" height="24" viewBox="0 0 24 24" fill="none" xmlns="http://www.w3.org/2000/svg">
<path fill-rule="evenodd" clip-rule="evenodd" d="M20.494 2.13071C20.9742 2.40354 21.1423 3.01398 20.8695 3.49417L16.211 11.6934L16.4739 11.7891C17.9946 12.3426 19.2107 13.8511 18.9577 15.6529C18.6218 18.046 17.5997 19.7732 15.7132 21.6998C15.4261 21.9931 14.9889 22.0811 14.6106 21.9218L5.11191 17.9218C4.77265 17.7789 4.53931 17.4612 4.5045 17.0947C4.46968 16.7283 4.63902 16.3723 4.94531 16.1681C6.4026 15.1966 7.56778 14.2453 8.44308 12.8684C9.49955 11.2064 11.5974 10.0142 13.724 10.7882L14.3049 10.9996L19.1306 2.50618C19.4034 2.02599 20.0138 1.85788 20.494 2.13071ZM13.0399 12.6676C12.0565 12.3096 10.8499 12.8102 10.1309 13.9413C9.39348 15.1014 8.5024 15.9955 7.52875 16.7694L9.23671 17.4887C9.29412 17.5129 9.35952 17.5089 9.4136 17.478L11.5447 16.2597C11.7041 16.1686 11.8917 16.3224 11.8337 16.4966L11.2826 18.1499C11.2495 18.249 11.2984 18.3569 11.3947 18.3974L14.7482 19.8097C16.1067 18.3158 16.7421 17.0491 16.9771 15.3749C17.0719 14.7001 16.6192 13.9703 15.7899 13.6685L13.0399 12.6676Z" fill="black"/>
<path d="M9.719 3.56014C9.68444 3.62926 9.6284 3.6853 9.55928 3.71986L8.63797 4.18051C8.37474 4.31213 8.37474 4.68778 8.63797 4.81939L9.55928 5.28005C9.6284 5.31461 9.68444 5.37065 9.719 5.43977L10.1796 6.36108C10.3112 6.62431 10.6869 6.62431 10.8185 6.36108L11.2791 5.43977C11.3137 5.37065 11.3698 5.31461 11.4389 5.28005L12.3602 4.81939C12.6234 4.68778 12.6234 4.31213 12.3602 4.18051L11.4389 3.71986C11.3698 3.6853 11.3137 3.62926 11.2791 3.56014L10.8185 2.63883C10.6869 2.3756 10.3112 2.3756 10.1796 2.63883L9.719 3.56014Z" fill="black"/>
<path d="M4.40702 7.18439C4.35864 7.28115 4.28018 7.35961 4.18342 7.40799L2.89358 8.05291C2.52506 8.23717 2.52506 8.76307 2.89358 8.94734L4.18342 9.59225C4.28018 9.64064 4.35864 9.7191 4.40702 9.81586L5.05194 11.1057C5.2362 11.4743 5.7621 11.4743 5.94637 11.1057L6.59128 9.81586C6.63967 9.7191 6.71813 9.64064 6.81489 9.59225L8.10473 8.94734C8.47325 8.76307 8.47325 8.23717 8.10473 8.05291L6.81489 7.40799C6.71813 7.35961 6.63967 7.28115 6.59128 7.18439L5.94637 5.89455C5.7621 5.52603 5.2362 5.52603 5.05194 5.89455L4.40702 7.18439Z" fill="black"/>
</svg>
