<svg width="24" height="24" viewBox="0 0 24 24" fill="none" xmlns="http://www.w3.org/2000/svg">
<path d="M9 5.49985L11.2929 3.20696C11.6834 2.81643 12.3166 2.81643 12.7071 3.20696L15 5.49985" stroke="black" stroke-width="2" stroke-linecap="round" stroke-linejoin="round"/>
<path d="M5.49985 9L3.20696 11.2929C2.81643 11.6834 2.81643 12.3166 3.20696 12.7071L5.49985 15" stroke="black" stroke-width="2" stroke-linecap="round" stroke-linejoin="round"/>
<path d="M18.5 9L20.7929 11.2929C21.1834 11.6834 21.1834 12.3166 20.7929 12.7071L18.5 15" stroke="black" stroke-width="2" stroke-linecap="round" stroke-linejoin="round"/>
<path d="M15 18.5L12.7071 20.7929C12.3166 21.1834 11.6834 21.1834 11.2929 20.7929L9 18.5" stroke="black" stroke-width="2" stroke-linecap="round" stroke-linejoin="round"/>
<path d="M12 4V12M12 12V20M12 12H4M12 12H20" stroke="black" stroke-width="2" stroke-linecap="round" stroke-linejoin="round"/>
</svg>
