<svg width="24" height="24" viewBox="0 0 24 24" fill="none" xmlns="http://www.w3.org/2000/svg">
<path d="M20 17.5C20 18.4537 19.6186 19.3182 19 19.9495C18.3647 20.5978 17.4793 21 16.5 21C14.567 21 13 19.433 13 17.5C13 15.567 14.567 14 16.5 14C18.433 14 20 15.567 20 17.5Z" stroke="black" stroke-width="2" stroke-linecap="round" stroke-linejoin="round"/>
<path d="M9.5 21H7C5.89543 21 5 20.1046 5 19V5C5 3.89543 5.89543 3 7 3H17C18.1046 3 19 3.89543 19 5V10" stroke="black" stroke-width="2" stroke-linecap="round"/>
<path d="M19 19.9492L20.5 21.4997" stroke="black" stroke-width="2" stroke-linecap="round"/>
<path d="M9 7H15" stroke="black" stroke-width="2" stroke-linecap="round"/>
<path d="M9 11H12" stroke="black" stroke-width="2" stroke-linecap="round"/>
</svg>
