<svg width="24" height="24" viewBox="0 0 24 24" fill="none" xmlns="http://www.w3.org/2000/svg">
<path d="M19 3H11C9.89543 3 9 3.89543 9 5V13C9 14.1046 9.89543 15 11 15H19C20.1046 15 21 14.1046 21 13V5C21 3.89543 20.1046 3 19 3Z" stroke="black" stroke-width="2" stroke-linecap="square" stroke-linejoin="round"/>
<path d="M13 9H5C3.89543 9 3 9.89543 3 11V19C3 20.1046 3.89543 21 5 21H13C14.1046 21 15 20.1046 15 19V11C15 9.89543 14.1046 9 13 9Z" stroke="black" stroke-width="2" stroke-linecap="square" stroke-linejoin="round"/>
</svg>
