<svg width="16" height="16" viewBox="0 0 16 16" fill="none" xmlns="http://www.w3.org/2000/svg">
<path d="M9.375 7.75L5.125 7V12.5418C5.125 12.7948 5.33016 13 5.58325 13H12.9168C13.1698 13 13.375 12.7948 13.375 12.5418V10.5L9.375 7.75Z" fill="#185C37"/>
<path d="M9.375 3H5.58325C5.33016 3 5.125 3.20516 5.125 3.45825V5.5L9.375 8L11.625 8.75L13.375 8V5.5L9.375 3Z" fill="#21A366"/>
<path d="M5.125 5.5H9.375V8H5.125V5.5Z" fill="#107C41"/>
<path opacity="0.1" d="M8.16675 5H5.125V11.25H8.16675C8.41949 11.2492 8.62418 11.0445 8.625 10.7918V5.45825C8.62418 5.20551 8.41949 5.00082 8.16675 5Z" fill="black"/>
<path opacity="0.2" d="M7.91675 5.25H5.125V11.5H7.91675C8.16949 11.4992 8.37418 11.2945 8.375 11.0418V5.70825C8.37418 5.45551 8.16949 5.25082 7.91675 5.25Z" fill="black"/>
<path opacity="0.2" d="M7.91675 5.25H5.125V11H7.91675C8.16949 10.9992 8.37418 10.7945 8.375 10.5418V5.70825C8.37418 5.45551 8.16949 5.25082 7.91675 5.25Z" fill="black"/>
<path opacity="0.2" d="M7.66675 5.25H5.125V11H7.66675C7.91949 10.9992 8.12418 10.7945 8.125 10.5418V5.70825C8.12418 5.45551 7.91949 5.25082 7.66675 5.25Z" fill="black"/>
<path d="M3.08325 5.25H7.66675C7.91983 5.25 8.125 5.45516 8.125 5.70825V10.2917C8.125 10.5448 7.91983 10.75 7.66675 10.75H3.08325C2.83016 10.75 2.625 10.5448 2.625 10.2918V5.70825C2.625 5.45516 2.83016 5.25 3.08325 5.25Z" fill="url(#paint0_linear_14284_2234)"/>
<path d="M4.04425 9.4895L5.00825 7.99575L4.125 6.51025H4.8355L5.3175 7.46025C5.362 7.5505 5.3925 7.6175 5.409 7.66175H5.41525C5.44641 7.59081 5.47976 7.52086 5.51525 7.452L6.0305 6.51075H6.68275L5.777 7.9875L6.70575 9.4895H6.01175L5.455 8.44675C5.42878 8.40239 5.40652 8.35579 5.3885 8.3075H5.38026C5.36395 8.3548 5.34231 8.4001 5.31575 8.4425L4.7425 9.4895H4.04425Z" fill="white"/>
<path d="M12.9168 3H9.375V5.5H13.375V3.45825C13.375 3.20516 13.1698 3 12.9168 3Z" fill="#33C481"/>
<path d="M9.375 8H13.375V10.5H9.375V8Z" fill="#107C41"/>
<defs>
<linearGradient id="paint0_linear_14284_2234" x1="3.58046" y1="4.89193" x2="7.16954" y2="11.1081" gradientUnits="userSpaceOnUse">
<stop stop-color="#18884F"/>
<stop offset="0.5" stop-color="#117E43"/>
<stop offset="1" stop-color="#0B6631"/>
</linearGradient>
</defs>
</svg>
